<svg xmlns="http://www.w3.org/2000/svg" version="1.1" xmlns:xlink="http://www.w3.org/1999/xlink" xmlns:svgjs="http://svgjs.dev/svgjs" width="1500" height="1500" viewBox="0 0 1500 1500"><rect width="1500" height="1500" fill="#ffffff"></rect><g transform="matrix(0.6666666666666666,0,0,0.6666666666666666,249.39393939393938,463.34103495183143)"><svg viewBox="0 0 396 227" data-background-color="#ffffff" preserveAspectRatio="xMidYMid meet" height="859" width="1500" xmlns="http://www.w3.org/2000/svg" xmlns:xlink="http://www.w3.org/1999/xlink"><g id="tight-bounds" transform="matrix(1,0,0,1,0.2400000000000091,0.12907753073506)"><svg viewBox="0 0 395.52 226.74184493852988" height="226.74184493852988" width="395.52"><g><svg viewBox="0 0 395.52 226.74184493852988" height="226.74184493852988" width="395.52"><g transform="matrix(1,0,0,1,0,167.7529640721039)"><svg viewBox="0 0 395.52 58.98888086642599" height="58.98888086642599" width="395.52"><g id="textblocktransform"><svg viewBox="0 0 395.52 58.98888086642599" height="58.98888086642599" width="395.52" id="textblock"><g><svg viewBox="0 0 395.52 58.98888086642599" height="58.98888086642599" width="395.52"><g transform="matrix(1,0,0,1,0,0)"><svg width="395.52" viewBox="1.27 -31.74 216.38 32.28" height="58.98888086642599" data-palette-color="#919591"><path d="M14.94 0.49L14.94 0.49Q19.24 0.49 22.17-2.73L22.17-2.73Q24.9-5.86 24.9-10.64L24.9-10.64Q24.9-16.02 21.97-19.04L21.97-19.04Q19.78-21.24 16.55-21.24L16.55-21.24Q11.23-21.24 8.98-16.46L8.98-16.46Q8.74-16.02 8.59-15.58L8.59-15.58 8.59-31.74 1.27-31.74 1.27-30.52 4.93-30.52 4.93-4.15Q4.93-1.9 3.66-1.46L3.66-1.46Q2.93-1.22 1.27-1.22L1.27-1.22 1.27 0 7.42 0 7.86-3.22Q9.96 0.15 14.21 0.44L14.21 0.44Q14.6 0.49 14.94 0.49ZM15.04-19.29L15.04-19.29Q19.04-19.29 20.26-14.4L20.26-14.4Q20.75-12.6 20.75-10.3L20.75-10.3Q20.75-3.42 17.04-1.37L17.04-1.37Q15.87-0.73 14.45-0.73L14.45-0.73Q10.79-0.73 9.28-4.64L9.28-4.64Q8.54-6.69 8.54-9.38L8.54-9.38Q8.54-15.28 11.47-17.92L11.47-17.92Q13.04-19.29 15.04-19.29ZM38.33-1.22L38.33-1.22 35.89-1.22 35.89-20.75 28.32-20.75 28.32-19.53 32.22-19.53 32.22-4.15Q32.22-1.9 30.71-1.42L30.71-1.42Q29.98-1.22 28.32-1.22L28.32-1.22 28.32 0 39.55 0Q39.55-1.07 38.82-1.17L38.82-1.17Q38.57-1.22 38.33-1.22ZM36.47-27.88L36.47-27.88Q36.47-29.59 34.96-30.32L34.96-30.32Q34.37-30.57 33.84-30.57L33.84-30.57Q32.13-30.57 31.39-29L31.39-29Q31.15-28.47 31.15-27.88L31.15-27.88Q31.15-26.07 32.76-25.39L32.76-25.39Q33.3-25.2 33.84-25.2L33.84-25.2Q35.54-25.2 36.23-26.76L36.23-26.76Q36.47-27.29 36.47-27.88ZM59.22-5.18L59.61 0 66.6 0Q66.6-1.07 65.86-1.17L65.86-1.17Q65.67-1.22 65.38-1.22L65.38-1.22 62.93-1.22 62.84-31.74 54.54-31.74 54.54-30.52 59.17-30.52 59.17-18.6Q56.78-21.24 52.73-21.24L52.73-21.24Q47.36-21.24 44.62-16.46L44.62-16.46Q42.96-13.53 42.96-9.86L42.96-9.86Q42.96-3.81 46.77-1.03L46.77-1.03Q48.92 0.49 51.51 0.49L51.51 0.49Q56.83 0.39 59.22-5.18L59.22-5.18ZM47.11-10.45L47.11-10.45Q47.11-17.33 50.83-19.38L50.83-19.38Q52-20.02 53.41-20.02L53.41-20.02Q56.98-20.02 58.49-16.21L58.49-16.21Q59.32-14.16 59.32-11.38L59.32-11.38Q59.32-5.52 56.39-2.88L56.39-2.88Q54.83-1.46 52.83-1.46L52.83-1.46Q48.82-1.46 47.6-6.35L47.6-6.35Q47.11-8.15 47.11-10.45ZM88.27-1.22L88.27-1.22 86.07-1.22 86.07-11.77Q86.22-16.06 89.05-18.16L89.05-18.16Q90.37-19.14 91.69-19.14L91.69-19.14Q94.13-19.14 95.06-16.46L95.06-16.46Q95.45-15.28 95.45-13.82L95.45-13.82 95.45-4.15Q95.45-1.9 94.37-1.46L94.37-1.46Q93.69-1.22 92.03-1.22L92.03-1.22 92.03 0 102.53 0Q102.53-1.07 101.8-1.17L101.8-1.17Q101.6-1.22 101.31-1.22L101.31-1.22 99.11-1.22 99.11-13.33 99.11-13.72Q99.89-17.29 102.58-18.7L102.58-18.7Q103.6-19.19 104.53-19.19L104.53-19.19Q107.02-19.19 108.05-16.6L108.05-16.6Q108.53-15.38 108.53-13.82L108.53-13.82 108.53-4.15Q108.53-1.9 107.46-1.46L107.46-1.46Q106.78-1.22 105.12-1.22L105.12-1.22 105.12 0 115.91 0Q115.91-1.07 115.18-1.17L115.18-1.17Q114.98-1.22 114.69-1.22L114.69-1.22 112.2-1.22 112.2-13.33Q112.2-18.36 108.93-20.36L108.93-20.36Q107.46-21.24 105.75-21.24L105.75-21.24Q102.04-21.24 99.79-17.77L99.79-17.77Q99.21-16.89 98.82-15.92L98.82-15.92Q97.94-19.78 94.96-20.9L94.96-20.9Q94.08-21.24 93.15-21.24L93.15-21.24Q89.64-21.24 87.34-18.26L87.34-18.26Q86.51-17.19 86.03-15.87L86.03-15.87 85.83-20.75 78.75-20.75 78.75-19.53 82.41-19.53 82.41-4.15Q82.41-1.9 81.14-1.46L81.14-1.46Q80.41-1.22 78.75-1.22L78.75-1.22 78.75 0 89.49 0Q89.49-1.03 88.76-1.17L88.76-1.17Q88.52-1.22 88.27-1.22ZM136.22 0.49L136.22 0.49Q139.98 0.49 140.37-4.05L140.37-4.05Q140.42-4.35 140.42-4.59L140.42-4.59 139.15-4.64Q138.81-1.07 137.24-1.03L137.24-1.03Q135.97-1.12 135.93-3.56L135.93-3.56 135.93-13.87Q135.93-20.85 128.94-21.24L128.94-21.24Q128.5-21.24 128.06-21.24L128.06-21.24Q122.59-21.24 120.74-18.7L120.74-18.7Q120.15-17.87 120.15-17.04L120.15-17.04Q120.15-15.53 121.57-15.28L121.57-15.28Q121.81-15.23 122.06-15.23L122.06-15.23Q123.18-15.23 123.72-16.65L123.72-16.65Q124.4-18.46 124.65-18.8L124.65-18.8Q125.57-20.02 127.53-20.02L127.53-20.02Q132.12-19.73 132.26-14.99L132.26-14.99 132.26-11.91Q120.79-11.91 119.13-7.13L119.13-7.13Q118.84-6.2 118.84-5.13L118.84-5.13Q118.84-1.42 122.11-0.05L122.11-0.05Q123.43 0.49 124.89 0.49L124.89 0.49Q128.45 0.49 130.9-1.95L130.9-1.95Q131.77-2.88 132.21-3.91L132.21-3.91Q132.8 0.44 136.22 0.49ZM126.5-1.46L126.5-1.46Q123.52-1.46 122.84-4.44L122.84-4.44Q122.69-5.13 122.69-5.96L122.69-5.96Q122.69-9.23 126.45-10.11L126.45-10.11Q128.45-10.55 132.26-10.6L132.26-10.6 132.26-6.69Q131.53-3.32 128.7-1.95L128.7-1.95Q127.58-1.46 126.5-1.46ZM149.94-0.83L149.94-0.83Q153.31-0.83 154.48-2.88L154.48-2.88Q154.92-3.61 154.92-4.49L154.92-4.49Q154.92-6.54 151.94-8.01L151.94-8.01Q151.3-8.35 149.84-8.98L149.84-8.98Q145.83-10.64 144.52-12.11L144.52-12.11Q143.1-13.72 143.1-15.87L143.1-15.87Q143.1-19.24 146.81-20.61L146.81-20.61Q148.52-21.24 150.52-21.24L150.52-21.24Q153.74-21.24 156.09-19.87L156.09-19.87Q156.09-21.29 156.77-21.48L156.77-21.48Q157.07-21.53 157.41-21.53L157.41-21.53 157.41-15.43 156.14-15.43Q156.04-19.92 151.16-19.97L151.16-19.97Q147.49-19.97 146.62-17.82L146.62-17.82Q146.37-17.24 146.37-16.6L146.37-16.6Q146.37-14.5 149.4-13.04L149.4-13.04Q150.08-12.7 151.55-12.11L151.55-12.11Q155.5-10.5 156.82-9.03L156.82-9.03Q158.24-7.47 158.24-5.32L158.24-5.32Q158.24-1.37 154.04-0.05L154.04-0.05Q152.43 0.49 150.52 0.49L150.52 0.49Q147.01 0.44 144.42-1.27L144.42-1.27Q144.42 0 143.78 0.2L143.78 0.2Q143.49 0.24 143.1 0.24L143.1 0.24 143.1-7.18 144.47-7.18Q144.57-0.88 149.94-0.83ZM161.16-20.75L161.16-19.53 164.58-19.53 164.58-5.76Q164.92 0.34 170.2 0.54L170.2 0.54Q174.69 0.54 175.81-4.98L175.81-4.98Q175.81-5.03 175.81-5.08L175.81-5.08 174.49-5.32Q173.27-1.27 170.93-0.93L170.93-0.93Q168.29-1.03 168.24-4.69L168.24-4.69 168.24-19.53 175.81-19.53 175.81-20.75 168.24-20.75 168.24-26.42 164.58-25.39 164.58-20.75 161.16-20.75ZM188.21-20.02L188.21-20.02Q191.63-20.02 192.75-17.14L192.75-17.14Q193.14-16.21 193.14-15.14L193.14-15.14Q193.14-12.7 190.8-12.16L190.8-12.16Q189.58-11.91 187.33-11.96L187.33-11.96 182.16-12.11Q182.4-17.72 185.82-19.43L185.82-19.43Q186.94-20.02 188.21-20.02ZM196.71-4.69L196.71-4.69 195.49-5.13Q193.78-1.42 189.97-0.93L189.97-0.93Q189.48-0.88 189.04-0.88L189.04-0.88Q183.92-0.88 182.6-6.98L182.6-6.98Q182.21-8.69 182.16-10.74L182.16-10.74 188.02-10.64Q193.97-10.55 195.68-11.77L195.68-11.77Q197-12.74 197-14.55L197-14.55Q197-17.87 193.63-19.82L193.63-19.82Q191.24-21.24 188.11-21.24L188.11-21.24Q182.01-21.24 179.37-16.16L179.37-16.16Q178.01-13.53 178.01-10.21L178.01-10.21Q178.01-4.15 182.35-1.22L182.35-1.22Q184.94 0.49 188.26 0.49L188.26 0.49Q193.53 0.49 196.02-3.32L196.02-3.32Q196.42-4 196.71-4.69ZM211.11-1.22L211.11-1.22 207.59-1.22 207.59-10.94Q207.59-15.38 210.33-18.07L210.33-18.07Q211.4-19.09 212.14-19.14L212.14-19.14Q212.97-19.14 213.65-17.92L213.65-17.92Q214.43-16.55 215.11-16.36L215.11-16.36Q215.41-16.26 215.7-16.26L215.7-16.26Q217.17-16.26 217.56-17.68L217.56-17.68Q217.65-17.97 217.65-18.26L217.65-18.26Q217.65-20.46 215.41-20.95L215.41-20.95Q214.92-21.04 214.48-21.04L214.48-21.04Q211.55-21.04 209.25-18.55L209.25-18.55Q208.18-17.38 207.55-15.92L207.55-15.92 207.35-20.75 200.27-20.75 200.27-19.53 203.93-19.53 203.93-4.15Q203.93-1.9 202.66-1.46L202.66-1.46Q201.93-1.22 200.27-1.22L200.27-1.22 200.27 0 212.33 0Q212.33-1.07 211.6-1.17L211.6-1.17Q211.4-1.22 211.11-1.22Z" opacity="1" transform="matrix(1,0,0,1,0,0)" fill="#000000" class="wordmark-text-0" data-fill-palette-color="primary" id="text-0"></path></svg></g></svg></g></svg></g></svg></g><g transform="matrix(1,0,0,1,127.80937700337041,0)"><svg viewBox="0 0 139.90124599325915 139.90124599325915" height="139.90124599325915" width="139.90124599325915"><g><svg></svg></g><g id="icon-0"><svg viewBox="0 0 139.90124599325915 139.90124599325915" height="139.90124599325915" width="139.90124599325915"><g><path d="M0 69.951c0-38.633 31.318-69.951 69.951-69.951 38.633 0 69.951 31.318 69.95 69.951 0 38.633-31.318 69.951-69.95 69.95-38.633 0-69.951-31.318-69.951-69.95zM69.951 134.582c35.695 0 64.631-28.936 64.631-64.631 0-35.695-28.936-64.631-64.631-64.631-35.695 0-64.631 28.936-64.631 64.631 0 35.695 28.936 64.631 64.631 64.631z" data-fill-palette-color="tertiary" fill="#000000" stroke="transparent"></path></g><g transform="matrix(1,0,0,1,32.5956377325339,32.89159723277986)"><svg viewBox="0 0 74.70997052819135 74.11805152769944" height="74.11805152769944" width="74.70997052819135"><g><svg xmlns="http://www.w3.org/2000/svg" xmlns:xlink="http://www.w3.org/1999/xlink" version="1.1" x="0" y="0" viewBox="14.3 16.3 483.32936619198364 479.5" enable-background="new 0 0 512 512" xml:space="preserve" height="74.11805152769944" width="74.70997052819135" class="icon-dxe-0" data-fill-palette-color="accent" id="dxe-0"><g fill="#636365" data-fill-palette-color="accent"><path d="M477 359L292.5 192 326.2 158.3C329.3 159.8 341.6 164.9 352.7 153.8L380.2 126.3 270.2 16.3 242.7 43.8C230.5 56 236.7 67.2 238.2 70.3L104.1 204.3C95.5 200.4 84.6 201.8 77.7 208.7L50.2 236.2 160.2 346.2 187.7 318.7C199.6 306.8 193.7 295.3 192.2 292.2L225.9 258.5 392.9 443.1C404.2 455.6 443.7 480.8 479.2 445.3 515.4 409 489.2 370 477 359M253.7 54.7L270.2 38.2 358.2 126.2 341.7 142.7C338.8 145.6 333.6 145.6 330.7 142.7L253.7 65.7C252.2 64.3 249.2 59.2 253.7 54.7M176.7 307.7L160.2 324.2 72.2 236.2 88.7 219.7C91.7 216.8 96.8 216.8 99.7 219.7L176.7 296.7C178.1 298.2 181.9 302.5 176.7 307.7M182.2 280.2L116.2 214.2 248.2 82.2 314.2 148.2zM468.2 434.3C446.5 456 418.7 447 404.4 432.7L236.9 247.5 281.4 203 466.6 370.5C480.5 384.4 490.4 412 468.2 434.3" fill="#000000" data-fill-palette-color="accent"></path><path d="M185.5 456.9C185.5 444 175 433.6 162.2 433.6H53.2C40.3 433.6 29.9 444.1 29.9 456.9V480.2H14.3V495.8H201V480.2H185.4V456.9zM169.9 480.2H45.5V456.9C45.5 452.6 49 449.1 53.3 449.1H162.2C166.5 449.1 170 452.6 170 456.9V480.2z" fill="#000000" data-fill-palette-color="accent"></path></g></svg></g></svg></g></svg></g></svg></g><g></g></svg></g><defs></defs></svg><rect width="395.52" height="226.74184493852988" fill="none" stroke="none" visibility="hidden"></rect></g></svg></g></svg>